<svg width="319" height="159" viewBox="0 0 319 159" fill="none" xmlns="http://www.w3.org/2000/svg">
<path d="M0 0H319V159H0V0Z" fill="url(#paint0_linear_5_20)"/>
<path d="M99.3619 126.516H18L27.6063 109.881L29.8216 106.035L31.6744 102.853H85.6875L87.5402 106.035L89.7555 109.881L99.3619 126.516Z" fill="url(#paint1_linear_5_20)"/>
<path d="M92.7764 51.6388L76.8867 79.169L74.4499 83.378L65.4477 98.9858H38.7634L61.1178 60.2584L63.5345 56.0493L76.9874 32.7484L79.4242 28.5393L92.7764 51.6388Z" fill="url(#paint2_linear_5_20)"/>
<path d="M133.135 130H106.229L104.215 126.516L94.6292 109.881L92.3938 106.035L90.5611 102.853L88.3257 98.9858L79.3235 83.378L92.7764 60.0771L121.515 109.881L133.135 130Z" fill="url(#paint3_linear_5_20)"/>
<path d="M70.3012 98.9858H83.4722L76.8867 87.5871L70.3012 98.9858Z" fill="url(#paint4_linear_5_20)"/>
<path d="M176.165 56.3375C173.589 55.431 170.989 54.9777 168.365 54.9777H130.577V101.926H168.365C170.989 101.926 173.589 101.473 176.165 100.567C180.841 98.9443 184.623 96.0936 187.509 92.0142C190.395 87.9348 191.839 83.4139 191.839 78.452C191.839 73.4902 190.395 68.9693 187.509 64.8899C184.622 60.8105 180.841 57.9598 176.165 56.3375ZM174.877 96.845C172.873 97.5607 170.702 97.9188 168.365 97.9188H134.584V58.9858H168.365C170.702 58.9858 172.873 59.3437 174.877 60.0594C178.742 61.443 181.867 63.8285 184.253 67.2162C186.638 70.6038 187.831 74.349 187.831 78.4523C187.831 82.5557 186.638 86.3012 184.253 89.6885C181.867 93.0758 178.742 95.4613 174.877 96.845ZM244.924 98.7058L218.373 78.8815L244.924 58.9855C245.449 58.6039 245.712 58.0791 245.712 57.4111C245.712 56.0752 245.02 55.4072 243.636 55.4072C243.207 55.4072 242.825 55.5265 242.491 55.7651L215.081 76.3766L187.67 55.7651C187.336 55.5265 186.954 55.4072 186.525 55.4072C185.809 55.4072 185.26 55.6697 184.879 56.1945C184.068 57.2918 184.187 58.2222 185.237 58.9856L211.788 78.8815L185.237 98.7059C184.712 99.0875 184.449 99.6124 184.449 100.28C184.449 101.616 185.141 102.284 186.525 102.284C186.954 102.284 187.336 102.165 187.67 101.926L215.081 81.3148L242.491 101.926C242.825 102.165 243.207 102.284 243.636 102.284C245.02 102.284 245.712 101.616 245.712 100.28C245.712 99.6124 245.449 99.0875 244.924 98.7058Z" fill="white"/>
<path d="M133.135 123.845V109.801H136.145C138.532 109.801 139.916 111.165 139.916 113.733V119.712C139.916 122.34 138.512 123.845 136.145 123.845H133.135ZM133.777 123.223H136.145C138.131 123.223 139.274 121.999 139.274 119.692V113.753C139.274 111.506 138.151 110.423 136.145 110.423H133.777V123.223ZM153.127 123.845L152.123 119.993H147.268L146.265 123.845H145.583L149.335 109.801H150.057L153.809 123.845H153.127ZM147.429 119.411H151.963L150.478 113.693C150.197 112.63 149.937 111.547 149.696 110.644C149.455 111.547 149.194 112.63 148.913 113.693L147.429 119.411ZM165.655 109.801V110.403H162.445V123.845H161.803V110.403H158.653V109.801H165.655ZM178.043 123.845L177.039 119.993H172.184L171.181 123.845H170.499L174.251 109.801H174.973L178.725 123.845H178.043ZM172.345 119.411H176.879L175.394 113.693C175.113 112.63 174.853 111.547 174.612 110.644C174.371 111.547 174.11 112.63 173.829 113.693L172.345 119.411ZM196.538 124.086C194.432 124.086 193.168 122.641 193.047 120.575H193.689C193.85 122.38 194.853 123.464 196.538 123.464C198.324 123.464 199.327 122.26 199.327 120.675C199.327 116.984 193.168 116.823 193.168 112.79C193.168 110.925 194.552 109.56 196.498 109.56C198.444 109.56 199.708 110.925 199.849 113.031H199.207C199.046 111.185 198.063 110.182 196.518 110.182C194.933 110.182 193.81 111.246 193.81 112.79C193.81 116.382 199.989 116.522 199.989 120.675C199.989 122.541 198.685 124.086 196.538 124.086ZM210.05 124.086C207.722 124.086 206.258 122.581 206.258 119.853V113.814C206.258 111.045 207.722 109.56 210.05 109.56C212.377 109.56 213.841 111.045 213.841 113.814V119.853C213.841 122.581 212.377 124.086 210.05 124.086ZM210.05 123.464C211.996 123.464 213.199 122.24 213.199 119.853V113.814C213.199 111.406 211.996 110.182 210.05 110.182C208.103 110.182 206.92 111.406 206.92 113.814V119.853C206.92 122.24 208.103 123.464 210.05 123.464ZM221.555 123.223H226.751V123.845H220.913V109.801H221.555V123.223ZM236.069 124.046C233.922 124.046 232.538 122.641 232.538 120.013V109.801H233.18V120.013C233.18 122.28 234.303 123.424 236.069 123.424C237.814 123.424 238.958 122.28 238.958 120.013V109.801H239.6V120.013C239.6 122.641 238.196 124.046 236.069 124.046ZM252.61 109.801V110.403H249.4V123.845H248.758V110.403H245.608V109.801H252.61ZM258.858 109.801H259.5V123.845H258.858V109.801ZM270.363 124.086C268.036 124.086 266.571 122.581 266.571 119.853V113.814C266.571 111.045 268.036 109.56 270.363 109.56C272.69 109.56 274.155 111.045 274.155 113.814V119.853C274.155 122.581 272.69 124.086 270.363 124.086ZM270.363 123.464C272.309 123.464 273.513 122.24 273.513 119.853V113.814C273.513 111.406 272.309 110.182 270.363 110.182C268.417 110.182 267.233 111.406 267.233 113.814V119.853C267.233 122.24 268.417 123.464 270.363 123.464ZM287.807 109.801H288.469V123.845H287.807L282.751 113.111C282.47 112.51 282.089 111.647 281.868 111.125H281.848C281.848 111.807 281.868 112.63 281.868 113.332V123.845H281.226V109.801H281.888L286.904 120.474C287.205 121.116 287.586 121.939 287.847 122.521H287.867C287.847 121.919 287.807 121.116 287.807 120.454V109.801ZM298.549 124.086C296.443 124.086 295.179 122.641 295.058 120.575H295.7C295.861 122.38 296.864 123.464 298.549 123.464C300.335 123.464 301.338 122.26 301.338 120.675C301.338 116.984 295.179 116.823 295.179 112.79C295.179 110.925 296.563 109.56 298.509 109.56C300.455 109.56 301.719 110.925 301.86 113.031H301.218C301.057 111.185 300.074 110.182 298.529 110.182C296.944 110.182 295.821 111.246 295.821 112.79C295.821 116.382 302 116.522 302 120.675C302 122.541 300.696 124.086 298.549 124.086Z" fill="white"/>
<defs>
<linearGradient id="paint0_linear_5_20" x1="0" y1="79.5" x2="319" y2="79.5" gradientUnits="userSpaceOnUse">
<stop offset="0.677116" stop-color="#172B47"/>
<stop offset="1" stop-color="#386AAD"/>
</linearGradient>
<linearGradient id="paint1_linear_5_20" x1="0" y1="0" x2="319" y2="0" gradientUnits="userSpaceOnUse">
<stop stop-color="#B88746"/>
<stop offset="1" stop-color="#FDF5A6"/>
</linearGradient>
<linearGradient id="paint2_linear_5_20" x1="0" y1="0" x2="319" y2="0" gradientUnits="userSpaceOnUse">
<stop stop-color="#B88746"/>
<stop offset="1" stop-color="#FDF5A6"/>
</linearGradient>
<linearGradient id="paint3_linear_5_20" x1="0" y1="0" x2="319" y2="0" gradientUnits="userSpaceOnUse">
<stop stop-color="#B88746"/>
<stop offset="1" stop-color="#FDF5A6"/>
</linearGradient>
<linearGradient id="paint4_linear_5_20" x1="0" y1="0" x2="319" y2="0" gradientUnits="userSpaceOnUse">
<stop stop-color="#B88746"/>
<stop offset="1" stop-color="#FDF5A6"/>
</linearGradient>
</defs>
</svg>
