<svg width="3169" height="1318" viewBox="0 0 3169 1318" fill="none" xmlns="http://www.w3.org/2000/svg">
<g filter="url(#filter0_d_5_14)">
<path d="M906 575H1225V734H906V575Z" fill="url(#paint0_linear_5_14)"/>
<path d="M906.5 575.5H1224.5V733.5H906.5V575.5Z" stroke="black"/>
</g>
<path d="M1005.36 701.516H924L933.606 684.881L935.822 681.035L937.674 677.853H991.687L993.54 681.035L995.756 684.881L1005.36 701.516Z" fill="url(#paint1_linear_5_14)"/>
<path d="M998.776 626.639L982.887 654.169L980.45 658.378L971.448 673.986H944.763L967.118 635.258L969.534 631.049L982.987 607.748L985.424 603.539L998.776 626.639Z" fill="url(#paint2_linear_5_14)"/>
<path d="M1039.14 705H1012.23L1010.22 701.516L1000.63 684.881L998.394 681.035L996.561 677.853L994.326 673.986L985.324 658.378L998.776 635.077L1023.47 677.853L1027.51 684.881L1039.14 705Z" fill="url(#paint3_linear_5_14)"/>
<path d="M976.301 673.986H989.472L982.887 662.587L976.301 673.986Z" fill="url(#paint4_linear_5_14)"/>
<path d="M1082.17 631.338C1079.59 630.431 1076.99 629.978 1074.36 629.978H1036.58V676.926H1074.36C1076.99 676.926 1079.59 676.473 1082.17 675.567C1086.84 673.944 1090.62 671.094 1093.51 667.014C1096.4 662.935 1097.84 658.414 1097.84 653.452C1097.84 648.49 1096.4 643.969 1093.51 639.89C1090.62 635.811 1086.84 632.96 1082.17 631.338ZM1080.88 671.845C1078.87 672.561 1076.7 672.919 1074.36 672.919H1040.58V633.986H1074.36C1076.7 633.986 1078.87 634.344 1080.88 635.059C1084.74 636.443 1087.87 638.828 1090.25 642.216C1092.64 645.604 1093.83 649.349 1093.83 653.452C1093.83 657.556 1092.64 661.301 1090.25 664.689C1087.87 668.076 1084.74 670.461 1080.88 671.845ZM1150.92 673.706L1124.37 653.881L1150.92 633.986C1151.45 633.604 1151.71 633.079 1151.71 632.411C1151.71 631.075 1151.02 630.407 1149.64 630.407C1149.21 630.407 1148.83 630.527 1148.49 630.765L1121.08 651.377L1093.67 630.765C1093.34 630.527 1092.95 630.407 1092.52 630.407C1091.81 630.407 1091.26 630.67 1090.88 631.194C1090.07 632.292 1090.19 633.222 1091.24 633.986L1117.79 653.882L1091.24 673.706C1090.71 674.088 1090.45 674.612 1090.45 675.28C1090.45 676.616 1091.14 677.284 1092.52 677.284C1092.95 677.284 1093.34 677.165 1093.67 676.926L1121.08 656.315L1148.49 676.926C1148.83 677.165 1149.21 677.284 1149.64 677.284C1151.02 677.284 1151.71 676.616 1151.71 675.28C1151.71 674.612 1151.45 674.087 1150.92 673.706Z" fill="white"/>
<path d="M1039.14 698.845V684.801H1042.14C1044.53 684.801 1045.92 686.165 1045.92 688.733V694.712C1045.92 697.34 1044.51 698.845 1042.14 698.845H1039.14ZM1039.78 698.223H1042.14C1044.13 698.223 1045.27 696.999 1045.27 694.692V688.753C1045.27 686.506 1044.15 685.423 1042.14 685.423H1039.78V698.223ZM1059.13 698.845L1058.12 694.993H1053.27L1052.27 698.845H1051.58L1055.33 684.801H1056.06L1059.81 698.845H1059.13ZM1053.43 694.411H1057.96L1056.48 688.693C1056.2 687.63 1055.94 686.547 1055.7 685.644C1055.46 686.547 1055.19 687.63 1054.91 688.693L1053.43 694.411ZM1071.65 684.801V685.403H1068.44V698.845H1067.8V685.403H1064.65V684.801H1071.65ZM1084.04 698.845L1083.04 694.993H1078.18L1077.18 698.845H1076.5L1080.25 684.801H1080.97L1084.72 698.845H1084.04ZM1078.34 694.411H1082.88L1081.39 688.693C1081.11 687.63 1080.85 686.547 1080.61 685.644C1080.37 686.547 1080.11 687.63 1079.83 688.693L1078.34 694.411ZM1102.54 699.086C1100.43 699.086 1099.17 697.641 1099.05 695.575H1099.69C1099.85 697.38 1100.85 698.464 1102.54 698.464C1104.32 698.464 1105.33 697.26 1105.33 695.675C1105.33 691.984 1099.17 691.823 1099.17 687.79C1099.17 685.925 1100.55 684.56 1102.5 684.56C1104.44 684.56 1105.71 685.925 1105.85 688.031H1105.21C1105.05 686.185 1104.06 685.182 1102.52 685.182C1100.93 685.182 1099.81 686.246 1099.81 687.79C1099.81 691.382 1105.99 691.522 1105.99 695.675C1105.99 697.541 1104.69 699.086 1102.54 699.086ZM1116.05 699.086C1113.72 699.086 1112.26 697.581 1112.26 694.853V688.814C1112.26 686.045 1113.72 684.56 1116.05 684.56C1118.38 684.56 1119.84 686.045 1119.84 688.814V694.853C1119.84 697.581 1118.38 699.086 1116.05 699.086ZM1116.05 698.464C1118 698.464 1119.2 697.24 1119.2 694.853V688.814C1119.2 686.406 1118 685.182 1116.05 685.182C1114.1 685.182 1112.92 686.406 1112.92 688.814V694.853C1112.92 697.24 1114.1 698.464 1116.05 698.464ZM1127.55 698.223H1132.75V698.845H1126.91V684.801H1127.55V698.223ZM1142.07 699.046C1139.92 699.046 1138.54 697.641 1138.54 695.013V684.801H1139.18V695.013C1139.18 697.28 1140.3 698.424 1142.07 698.424C1143.81 698.424 1144.96 697.28 1144.96 695.013V684.801H1145.6V695.013C1145.6 697.641 1144.2 699.046 1142.07 699.046ZM1158.61 684.801V685.403H1155.4V698.845H1154.76V685.403H1151.61V684.801H1158.61ZM1164.86 684.801H1165.5V698.845H1164.86V684.801ZM1176.36 699.086C1174.04 699.086 1172.57 697.581 1172.57 694.853V688.814C1172.57 686.045 1174.04 684.56 1176.36 684.56C1178.69 684.56 1180.15 686.045 1180.15 688.814V694.853C1180.15 697.581 1178.69 699.086 1176.36 699.086ZM1176.36 698.464C1178.31 698.464 1179.51 697.24 1179.51 694.853V688.814C1179.51 686.406 1178.31 685.182 1176.36 685.182C1174.42 685.182 1173.23 686.406 1173.23 688.814V694.853C1173.23 697.24 1174.42 698.464 1176.36 698.464ZM1193.81 684.801H1194.47V698.845H1193.81L1188.75 688.111C1188.47 687.51 1188.09 686.647 1187.87 686.125H1187.85C1187.85 686.807 1187.87 687.63 1187.87 688.332V698.845H1187.23V684.801H1187.89L1192.9 695.474C1193.2 696.116 1193.59 696.939 1193.85 697.521H1193.87C1193.85 696.919 1193.81 696.116 1193.81 695.454V684.801ZM1204.55 699.086C1202.44 699.086 1201.18 697.641 1201.06 695.575H1201.7C1201.86 697.38 1202.86 698.464 1204.55 698.464C1206.33 698.464 1207.34 697.26 1207.34 695.675C1207.34 691.984 1201.18 691.823 1201.18 687.79C1201.18 685.925 1202.56 684.56 1204.51 684.56C1206.46 684.56 1207.72 685.925 1207.86 688.031H1207.22C1207.06 686.185 1206.07 685.182 1204.53 685.182C1202.94 685.182 1201.82 686.246 1201.82 687.79C1201.82 691.382 1208 691.522 1208 695.675C1208 697.541 1206.7 699.086 1204.55 699.086Z" fill="white"/>
<defs>
<filter id="filter0_d_5_14" x="902" y="575" width="327" height="167" filterUnits="userSpaceOnUse" color-interpolation-filters="sRGB">
<feFlood flood-opacity="0" result="BackgroundImageFix"/>
<feColorMatrix in="SourceAlpha" type="matrix" values="0 0 0 0 0 0 0 0 0 0 0 0 0 0 0 0 0 0 127 0" result="hardAlpha"/>
<feOffset dy="4"/>
<feGaussianBlur stdDeviation="2"/>
<feComposite in2="hardAlpha" operator="out"/>
<feColorMatrix type="matrix" values="0 0 0 0 0 0 0 0 0 0 0 0 0 0 0 0 0 0 0.25 0"/>
<feBlend mode="normal" in2="BackgroundImageFix" result="effect1_dropShadow_5_14"/>
<feBlend mode="normal" in="SourceGraphic" in2="effect1_dropShadow_5_14" result="shape"/>
</filter>
<linearGradient id="paint0_linear_5_14" x1="906" y1="654.5" x2="1225" y2="654.5" gradientUnits="userSpaceOnUse">
<stop offset="0.677116" stop-color="#172B47"/>
<stop offset="1" stop-color="#386AAD"/>
</linearGradient>
<linearGradient id="paint1_linear_5_14" x1="924" y1="603.539" x2="1208" y2="603.539" gradientUnits="userSpaceOnUse">
<stop stop-color="#B88746"/>
<stop offset="1" stop-color="#FDF5A6"/>
</linearGradient>
<linearGradient id="paint2_linear_5_14" x1="924" y1="603.539" x2="1208" y2="603.539" gradientUnits="userSpaceOnUse">
<stop stop-color="#B88746"/>
<stop offset="1" stop-color="#FDF5A6"/>
</linearGradient>
<linearGradient id="paint3_linear_5_14" x1="924" y1="603.539" x2="1208" y2="603.539" gradientUnits="userSpaceOnUse">
<stop stop-color="#B88746"/>
<stop offset="1" stop-color="#FDF5A6"/>
</linearGradient>
<linearGradient id="paint4_linear_5_14" x1="924" y1="603.539" x2="1208" y2="603.539" gradientUnits="userSpaceOnUse">
<stop stop-color="#B88746"/>
<stop offset="1" stop-color="#FDF5A6"/>
</linearGradient>
</defs>
</svg>
