<svg width="268" height="158" viewBox="0 0 268 158" fill="none" xmlns="http://www.w3.org/2000/svg">
<g filter="url(#filter0_d_5_13)">
<path d="M264 0H4V150H264V0Z" fill="white"/>
<path d="M68 65H48V105H68V65Z" fill="#2196F3"/>
<path d="M98 45H78V105H98V45Z" fill="#2196F3"/>
<path d="M128 35H108V105H128V35Z" fill="#2196F3"/>
<path d="M158 25H138V105H158V25Z" fill="#2196F3"/>
<path d="M188 50H168V105H188V50Z" fill="#2196F3"/>
<path d="M63.824 135C63.2267 135 62.7467 134.755 62.384 134.264L54.992 124.536L57.904 121.56L65.552 131.672C65.8507 132.077 66 132.515 66 132.984C66 133.581 65.776 134.072 65.328 134.456C64.88 134.819 64.3787 135 63.824 135ZM64.208 112.44C64.72 112.44 65.136 112.653 65.456 113.08C65.7973 113.485 65.968 113.901 65.968 114.328C65.968 114.776 65.776 115.192 65.392 115.576L51.984 128.408L51.824 123.832L62.64 113.176C63.1307 112.685 63.6533 112.44 64.208 112.44ZM50.384 135C49.7867 135 49.3067 134.819 48.944 134.456C48.5813 134.072 48.4 133.603 48.4 133.048V114.552C48.4 113.997 48.592 113.539 48.976 113.176C49.36 112.792 49.8507 112.6 50.448 112.6C51.0453 112.6 51.5147 112.792 51.856 113.176C52.2187 113.539 52.4 113.997 52.4 114.552V133.048C52.4 133.603 52.2187 134.072 51.856 134.456C51.4933 134.819 51.0027 135 50.384 135Z" fill="#989797"/>
<path d="M71.6728 135C71.0754 135 70.5421 134.819 70.0728 134.456C69.6034 134.072 69.3688 133.603 69.3688 133.048V114.552C69.3688 113.997 69.5501 113.539 69.9128 113.176C70.2968 112.792 70.7661 112.6 71.3207 112.6H80.5368C81.6461 112.6 82.6807 112.899 83.6407 113.496C84.6221 114.072 85.4114 114.883 86.0088 115.928C86.6061 116.952 86.9048 118.136 86.9048 119.48C86.9048 120.291 86.7341 121.08 86.3928 121.848C86.0728 122.616 85.6248 123.309 85.0488 123.928C84.4941 124.547 83.8648 125.027 83.1608 125.368L83.1927 124.632C83.7901 124.952 84.2807 125.336 84.6647 125.784C85.0701 126.211 85.3794 126.68 85.5928 127.192C85.8274 127.683 85.9661 128.216 86.0088 128.792C86.0941 129.325 86.1474 129.795 86.1687 130.2C86.2114 130.605 86.2754 130.947 86.3607 131.224C86.4674 131.501 86.6594 131.715 86.9368 131.864C87.4061 132.141 87.6941 132.547 87.8008 133.08C87.9288 133.592 87.8114 134.051 87.4488 134.456C87.2141 134.733 86.9154 134.915 86.5527 135C86.1901 135.064 85.8274 135.064 85.4648 135C85.1021 134.915 84.8034 134.808 84.5687 134.68C84.2061 134.467 83.8434 134.157 83.4808 133.752C83.1181 133.325 82.8194 132.76 82.5847 132.056C82.3714 131.352 82.2647 130.445 82.2647 129.336C82.2647 128.973 82.2008 128.643 82.0728 128.344C81.9448 128.024 81.7634 127.757 81.5287 127.544C81.2941 127.309 80.9954 127.139 80.6328 127.032C80.2701 126.904 79.8434 126.84 79.3528 126.84H72.8887L73.3688 126.104V133.048C73.3688 133.603 73.2194 134.072 72.9208 134.456C72.6221 134.819 72.2061 135 71.6728 135ZM72.9208 123.544H80.3768C80.7608 123.544 81.1341 123.373 81.4967 123.032C81.8594 122.669 82.1581 122.189 82.3928 121.592C82.6274 120.973 82.7448 120.301 82.7448 119.576C82.7448 118.637 82.4888 117.859 81.9768 117.24C81.4861 116.6 80.9528 116.28 80.3768 116.28H72.9847L73.3688 115.256V124.312L72.9208 123.544Z" fill="#989797"/>
<path d="M101.585 135.32C99.9637 135.32 98.449 135.021 97.041 134.424C95.633 133.827 94.3957 133.005 93.329 131.96C92.2623 130.893 91.4197 129.667 90.801 128.28C90.2037 126.893 89.905 125.4 89.905 123.8C89.905 122.2 90.2037 120.707 90.801 119.32C91.4197 117.933 92.2623 116.717 93.329 115.672C94.3957 114.605 95.633 113.773 97.041 113.176C98.449 112.579 99.9637 112.28 101.585 112.28C102.588 112.28 103.558 112.387 104.497 112.6C105.436 112.813 106.3 113.133 107.089 113.56C107.409 113.731 107.644 113.965 107.793 114.264C107.964 114.541 108.049 114.829 108.049 115.128C108.049 115.64 107.878 116.099 107.537 116.504C107.196 116.909 106.758 117.112 106.225 117.112C106.054 117.112 105.873 117.091 105.681 117.048C105.51 117.005 105.34 116.941 105.169 116.856C104.636 116.621 104.07 116.44 103.473 116.312C102.876 116.184 102.246 116.12 101.585 116.12C100.198 116.12 98.929 116.472 97.777 117.176C96.6463 117.859 95.7397 118.787 95.057 119.96C94.3957 121.112 94.065 122.392 94.065 123.8C94.065 125.187 94.3957 126.467 95.057 127.64C95.7397 128.813 96.6463 129.752 97.777 130.456C98.929 131.139 100.198 131.48 101.585 131.48C102.225 131.48 102.929 131.416 103.697 131.288C104.465 131.16 105.094 130.989 105.585 130.776L105.297 131.736V126.264L105.841 126.744H102.289C101.734 126.744 101.265 126.563 100.881 126.2C100.518 125.837 100.337 125.379 100.337 124.824C100.337 124.269 100.518 123.811 100.881 123.448C101.265 123.085 101.734 122.904 102.289 122.904H107.537C108.092 122.904 108.55 123.096 108.913 123.48C109.276 123.843 109.457 124.301 109.457 124.856V131.64C109.457 132.067 109.35 132.419 109.137 132.696C108.945 132.973 108.721 133.197 108.465 133.368C107.484 133.965 106.406 134.445 105.233 134.808C104.081 135.149 102.865 135.32 101.585 135.32Z" fill="#989797"/>
<path d="M124.323 112.6C124.835 112.6 125.283 112.792 125.667 113.176C126.072 113.539 126.275 113.997 126.275 114.552V133.048C126.275 133.603 126.072 134.072 125.667 134.456C125.262 134.819 124.792 135 124.259 135C123.662 135 123.182 134.819 122.819 134.456C122.456 134.072 122.275 133.603 122.275 133.048V114.552C122.275 113.997 122.467 113.539 122.851 113.176C123.235 112.792 123.726 112.6 124.323 112.6ZM138.499 112.6C139.096 112.6 139.576 112.792 139.939 113.176C140.302 113.539 140.483 113.997 140.483 114.552V133.048C140.483 133.603 140.291 134.072 139.907 134.456C139.544 134.819 139.054 135 138.435 135C137.923 135 137.464 134.819 137.059 134.456C136.675 134.072 136.483 133.603 136.483 133.048V114.552C136.483 113.997 136.686 113.539 137.091 113.176C137.496 112.792 137.966 112.6 138.499 112.6ZM124.227 121.912H138.499V125.592H124.227V121.912Z" fill="#989797"/>
<path d="M161.563 126.456C161.563 128.205 161.168 129.752 160.379 131.096C159.611 132.419 158.566 133.453 157.243 134.2C155.942 134.947 154.48 135.32 152.859 135.32C151.238 135.32 149.766 134.947 148.443 134.2C147.142 133.453 146.096 132.419 145.307 131.096C144.539 129.752 144.155 128.205 144.155 126.456C144.155 124.707 144.539 123.171 145.307 121.848C146.096 120.504 147.142 119.459 148.443 118.712C149.766 117.944 151.238 117.56 152.859 117.56C154.48 117.56 155.942 117.944 157.243 118.712C158.566 119.459 159.611 120.504 160.379 121.848C161.168 123.171 161.563 124.707 161.563 126.456ZM157.723 126.456C157.723 125.368 157.499 124.429 157.051 123.64C156.624 122.829 156.038 122.2 155.291 121.752C154.566 121.304 153.755 121.08 152.859 121.08C151.963 121.08 151.142 121.304 150.395 121.752C149.67 122.2 149.083 122.829 148.635 123.64C148.208 124.429 147.995 125.368 147.995 126.456C147.995 127.523 148.208 128.461 148.635 129.272C149.083 130.061 149.67 130.68 150.395 131.128C151.142 131.576 151.963 131.8 152.859 131.8C153.755 131.8 154.566 131.576 155.291 131.128C156.038 130.68 156.624 130.061 157.051 129.272C157.499 128.461 157.723 127.523 157.723 126.456Z" fill="#989797"/>
<path d="M169.084 133.048C169.084 133.603 168.892 134.072 168.508 134.456C168.145 134.819 167.686 135 167.132 135C166.598 135 166.15 134.819 165.788 134.456C165.425 134.072 165.244 133.603 165.244 133.048V113.272C165.244 112.717 165.425 112.259 165.788 111.896C166.172 111.512 166.641 111.32 167.196 111.32C167.75 111.32 168.198 111.512 168.54 111.896C168.902 112.259 169.084 112.717 169.084 113.272V133.048Z" fill="#989797"/>
<path d="M187.252 111.32C187.807 111.32 188.266 111.501 188.628 111.864C188.991 112.227 189.172 112.696 189.172 113.272V133.048C189.172 133.603 188.991 134.072 188.628 134.456C188.266 134.819 187.807 135 187.252 135C186.698 135 186.239 134.819 185.876 134.456C185.514 134.072 185.332 133.603 185.332 133.048V131.48L186.036 131.768C186.036 132.045 185.887 132.387 185.588 132.792C185.29 133.176 184.884 133.56 184.372 133.944C183.86 134.328 183.252 134.659 182.548 134.936C181.866 135.192 181.119 135.32 180.308 135.32C178.836 135.32 177.503 134.947 176.308 134.2C175.114 133.432 174.164 132.387 173.46 131.064C172.778 129.72 172.436 128.184 172.436 126.456C172.436 124.707 172.778 123.171 173.46 121.848C174.164 120.504 175.103 119.459 176.276 118.712C177.45 117.944 178.751 117.56 180.18 117.56C181.098 117.56 181.94 117.699 182.708 117.976C183.476 118.253 184.138 118.605 184.692 119.032C185.268 119.459 185.706 119.896 186.004 120.344C186.324 120.771 186.484 121.133 186.484 121.432L185.332 121.848V113.272C185.332 112.717 185.514 112.259 185.876 111.896C186.239 111.512 186.698 111.32 187.252 111.32ZM180.788 131.8C181.727 131.8 182.548 131.565 183.252 131.096C183.956 130.627 184.5 129.987 184.884 129.176C185.29 128.365 185.492 127.459 185.492 126.456C185.492 125.432 185.29 124.515 184.884 123.704C184.5 122.893 183.956 122.253 183.252 121.784C182.548 121.315 181.727 121.08 180.788 121.08C179.871 121.08 179.06 121.315 178.356 121.784C177.652 122.253 177.098 122.893 176.692 123.704C176.308 124.515 176.116 125.432 176.116 126.456C176.116 127.459 176.308 128.365 176.692 129.176C177.098 129.987 177.652 130.627 178.356 131.096C179.06 131.565 179.871 131.8 180.788 131.8Z" fill="#989797"/>
<path d="M196.946 133.048C196.946 133.603 196.765 134.072 196.402 134.456C196.039 134.819 195.581 135 195.026 135C194.471 135 194.013 134.819 193.65 134.456C193.287 134.072 193.106 133.603 193.106 133.048V119.832C193.106 119.277 193.287 118.819 193.65 118.456C194.013 118.072 194.471 117.88 195.026 117.88C195.581 117.88 196.039 118.072 196.402 118.456C196.765 118.819 196.946 119.277 196.946 119.832V133.048ZM194.994 115.8C194.269 115.8 193.757 115.683 193.458 115.448C193.159 115.213 193.01 114.797 193.01 114.2V113.592C193.01 112.973 193.17 112.557 193.49 112.344C193.831 112.109 194.343 111.992 195.026 111.992C195.773 111.992 196.295 112.109 196.594 112.344C196.893 112.579 197.042 112.995 197.042 113.592V114.2C197.042 114.819 196.882 115.245 196.562 115.48C196.242 115.693 195.719 115.8 194.994 115.8Z" fill="#989797"/>
<path d="M210.044 117.56C211.623 117.56 212.818 117.891 213.628 118.552C214.46 119.213 215.026 120.099 215.324 121.208C215.644 122.296 215.805 123.512 215.805 124.856V133.048C215.805 133.603 215.623 134.072 215.26 134.456C214.898 134.819 214.439 135 213.885 135C213.33 135 212.871 134.819 212.508 134.456C212.146 134.072 211.965 133.603 211.965 133.048V124.856C211.965 124.152 211.868 123.523 211.676 122.968C211.506 122.392 211.186 121.933 210.717 121.592C210.247 121.251 209.575 121.08 208.701 121.08C207.847 121.08 207.122 121.251 206.525 121.592C205.949 121.933 205.5 122.392 205.18 122.968C204.882 123.523 204.732 124.152 204.732 124.856V133.048C204.732 133.603 204.551 134.072 204.189 134.456C203.826 134.819 203.367 135 202.812 135C202.258 135 201.799 134.819 201.436 134.456C201.074 134.072 200.893 133.603 200.893 133.048V119.832C200.893 119.277 201.074 118.819 201.436 118.456C201.799 118.072 202.258 117.88 202.812 117.88C203.367 117.88 203.826 118.072 204.189 118.456C204.551 118.819 204.732 119.277 204.732 119.832V121.208L204.253 121.112C204.445 120.749 204.722 120.365 205.085 119.96C205.447 119.533 205.874 119.139 206.365 118.776C206.855 118.413 207.41 118.125 208.029 117.912C208.647 117.677 209.319 117.56 210.044 117.56Z" fill="#989797"/>
<path d="M227.059 117.56C227.955 117.56 228.776 117.699 229.523 117.976C230.27 118.253 230.91 118.605 231.443 119.032C231.998 119.459 232.424 119.896 232.723 120.344C233.043 120.771 233.203 121.133 233.203 121.432L232.371 121.848V119.512C232.371 118.957 232.552 118.499 232.915 118.136C233.278 117.752 233.736 117.56 234.291 117.56C234.846 117.56 235.304 117.741 235.667 118.104C236.03 118.467 236.211 118.936 236.211 119.512V133.752C236.211 135.608 235.806 137.091 234.995 138.2C234.206 139.331 233.16 140.141 231.859 140.632C230.558 141.144 229.16 141.4 227.667 141.4C227.24 141.4 226.686 141.347 226.003 141.24C225.32 141.133 224.67 141.005 224.051 140.856C223.432 140.707 222.963 140.568 222.643 140.44C222.003 140.163 221.555 139.811 221.299 139.384C221.064 138.979 221.022 138.541 221.171 138.072C221.363 137.453 221.672 137.027 222.099 136.792C222.526 136.579 222.974 136.557 223.443 136.728C223.656 136.792 224.008 136.92 224.499 137.112C224.99 137.304 225.523 137.475 226.099 137.624C226.696 137.795 227.219 137.88 227.667 137.88C229.267 137.88 230.451 137.56 231.219 136.92C231.987 136.28 232.371 135.395 232.371 134.264V131.48L232.755 131.768C232.755 132.045 232.606 132.387 232.307 132.792C232.03 133.176 231.635 133.56 231.123 133.944C230.632 134.328 230.046 134.659 229.363 134.936C228.68 135.192 227.955 135.32 227.187 135.32C225.672 135.32 224.307 134.947 223.091 134.2C221.875 133.432 220.915 132.387 220.211 131.064C219.507 129.72 219.155 128.184 219.155 126.456C219.155 124.707 219.507 123.171 220.211 121.848C220.915 120.504 221.864 119.459 223.059 118.712C224.254 117.944 225.587 117.56 227.059 117.56ZM227.667 121.08C226.707 121.08 225.864 121.315 225.139 121.784C224.414 122.253 223.848 122.893 223.443 123.704C223.038 124.515 222.835 125.432 222.835 126.456C222.835 127.459 223.038 128.365 223.443 129.176C223.848 129.987 224.414 130.627 225.139 131.096C225.864 131.565 226.707 131.8 227.667 131.8C228.648 131.8 229.502 131.565 230.227 131.096C230.952 130.627 231.518 129.987 231.923 129.176C232.328 128.365 232.531 127.459 232.531 126.456C232.531 125.432 232.328 124.515 231.923 123.704C231.518 122.893 230.952 122.253 230.227 121.784C229.502 121.315 228.648 121.08 227.667 121.08Z" fill="#989797"/>
</g>
<defs>
<filter id="filter0_d_5_13" x="0" y="0" width="268" height="158" filterUnits="userSpaceOnUse" color-interpolation-filters="sRGB">
<feFlood flood-opacity="0" result="BackgroundImageFix"/>
<feColorMatrix in="SourceAlpha" type="matrix" values="0 0 0 0 0 0 0 0 0 0 0 0 0 0 0 0 0 0 127 0" result="hardAlpha"/>
<feOffset dy="4"/>
<feGaussianBlur stdDeviation="2"/>
<feComposite in2="hardAlpha" operator="out"/>
<feColorMatrix type="matrix" values="0 0 0 0 0 0 0 0 0 0 0 0 0 0 0 0 0 0 0.25 0"/>
<feBlend mode="normal" in2="BackgroundImageFix" result="effect1_dropShadow_5_13"/>
<feBlend mode="normal" in="SourceGraphic" in2="effect1_dropShadow_5_13" result="shape"/>
</filter>
</defs>
</svg>
